<?xml version="1.0" encoding="UTF-8" standalone="no"?>
<svg width="24" height="24" viewBox="0 0 100 100" xmlns="http://www.w3.org/2000/svg">
  <path d="M 33.078896,5.2837922 H 14.890695 A 10.03658,10.03658 0 0 0 4.9698584,15.436115 v 16.931562 0 A 10.03658,10.03658 0 0 0 14.890695,42.52 h 18.188201 a 10.03658,10.03658 0 0 0 9.920837,-10.152323 v -16.948096 0 A 10.03658,10.03658 0 0 0 33.078896,5.2837922 Z M 24.811532,32.367677 h -1.653473 a 8.4823155,8.4823155 0 0 1 0,-16.948096 h 1.653473 a 8.4823155,8.4823155 0 1 1 0,16.948096 z" />
  <path d="M 58.981673,42.52 H 77.280909 A 10.097851,10.097851 0 0 0 87.26231,32.305699 v -17.051561 0 A 10.114487,10.114487 0 0 0 77.280909,5.0564726 H 58.981673 A 10.097851,10.097851 0 0 0 49.000271,15.270774 v 17.034925 0 A 10.097851,10.097851 0 0 0 58.981673,42.52 Z m 8.317834,-27.265862 h 1.663567 a 8.5340984,8.5340984 0 0 1 0,17.051561 h -1.663567 a 8.5340984,8.5340984 0 0 1 0,-17.051561 z" />
  <path d="M 33.237553,48.66 H 15.340205 A 9.8923523,9.8923523 0 0 0 5.5780155,58.666245 v 16.579452 a 9.9086226,9.9086226 0 0 0 9.7621895,10.022515 h 17.897348 a 9.9086226,9.9086226 0 0 0 9.76219,-10.022515 V 58.666245 A 9.8923523,9.8923523 0 0 0 33.237553,48.66 Z m -8.135158,26.585697 h -1.627032 a 8.3304019,8.3304019 0 0 1 0,-16.579452 h 1.627032 v 0 a 8.3304019,8.3304019 0 0 1 0,16.579452 z" />
  <path d="M 94.622745,67.874641 C 93.43996,67.67751 92.257174,67.67751 91.059224,67.480379 A 0.4397537,0.4397537 0 0 1 90.664962,67.070953 39.517177,39.517177 0 0 0 89.14857,63.234481 v -0.606557 c 0.591393,-1.015982 1.516392,-2.031965 2.168441,-3.032784 A 1.5163921,1.5163921 0 0 0 91.11988,57.578339 l -3.94262,-4.048767 a 1.5163921,1.5163921 0 0 0 -0.985655,-0.394262 3.2754069,3.2754069 0 0 0 -0.985654,0.394262 c -1.000819,0.606557 -1.986474,1.622539 -3.032784,2.229096 a 0.19713097,0.19713097 0 0 0 -0.197131,0.197131 h -0.197131 c -1.379917,-0.394262 -2.365572,-1.213113 -3.745489,-1.607375 a 0.40942586,0.40942586 0 0 1 -0.394262,-0.409426 c -0.197131,-1.213114 -0.197131,-2.229097 -0.394262,-3.44221 a 1.6680313,1.6680313 0 0 0 -0.970491,-1.62254 0.60655682,0.60655682 0 0 0 -0.394262,-0.212295 H 70.11785 a 1.7438509,1.7438509 0 0 0 -0.985655,0.212295 c -0.394262,0.394262 -1.000819,1.000819 -1.000819,1.607376 a 20.289326,20.289326 0 0 1 -0.394262,3.44221 0.4397537,0.4397537 0 0 1 -0.394262,0.409426 c -1.379917,0.394262 -2.365571,1.213113 -3.745488,1.607375 h -0.197131 c -0.197131,0 -0.197131,0 -0.394262,-0.197131 -0.970491,-0.788524 -1.986474,-1.516392 -3.032784,-2.229096 a 1.152458,1.152458 0 0 0 -0.985655,-0.394262 c -0.591393,0 -0.591393,0.197131 -1.182786,0.394262 l -3.942619,4.048767 a 1.5163921,1.5163921 0 0 0 -0.197131,2.016801 c 0.591393,1.015983 1.516392,1.834835 2.16844,3.032784 a 0.37909802,0.37909802 0 0 1 0,0.530738 v 0 c -0.394262,1.410244 -1.182785,2.426227 -1.516392,3.836472 a 0.4397537,0.4397537 0 0 1 -0.394262,0.409425 c -1.197949,0.197131 -2.183604,0.197131 -3.36639,0.394262 A 1.6831952,1.6831952 0 0 0 49.04,68.996771 v 6.899584 a 3.2299151,3.2299151 0 0 0 1.516392,1.213113 19.243015,19.243015 0 0 1 3.36639,0.394262 0.42458978,0.42458978 0 0 1 0.394262,0.409426 c 0.394262,1.410245 1.182786,2.426228 1.516392,3.836472 0,0.212295 0.197131,0.409426 0,0.606557 -0.591392,1.015983 -1.516392,2.031965 -2.16844,3.032784 a 1.5163921,1.5163921 0 0 0 0.197131,2.031965 l 3.942619,4.033603 c 0.394262,0.409426 0.591393,0.409426 1.182786,0.409426 a 3.0327841,3.0327841 0 0 0 0.985655,-0.409426 32.829888,32.829888 0 0 1 3.032784,-2.213932 c 0.197131,0 0.197131,-0.212295 0.394262,-0.212295 h 0.197131 c 1.379917,0.409426 2.365571,1.213114 3.745488,1.62254 a 0.40942586,0.40942586 0 0 1 0.394262,0.409425 c 0.197131,1.213114 0.197131,2.426228 0.394262,3.639341 0.197131,1.213114 0.606557,1.410245 1.516392,1.410245 h 5.731962 c 1.000819,0 1.395081,-0.409426 1.516392,-1.410245 0.121312,-1.000818 0.197131,-2.426227 0.394262,-3.639341 a 0.40942586,0.40942586 0 0 1 0.500409,-0.333606 v 0 a 38.774145,38.774145 0 0 0 3.745489,-1.622539 h 0.197131 a 0.19713097,0.19713097 0 0 1 0.197131,0.197131 v 0 c 0.985655,0.606556 1.971309,1.607375 3.032784,2.213932 a 1.5163921,1.5163921 0 0 0 0.985655,0.409426 c 0.394262,0 0.591393,-0.197131 1.182786,-0.409426 l 3.942619,-4.033603 a 1.6073756,1.6073756 0 0 0 0.197131,-2.031965 c -0.591393,-1.000819 -1.516392,-1.819671 -2.168441,-3.032784 a 0.37909802,0.37909802 0 0 1 0,-0.530738 c 0.394262,-1.410244 1.182786,-2.426227 1.516392,-3.836471 a 0.42458978,0.42458978 0 0 1 0.394262,-0.409426 c 1.19795,-0.197131 2.380736,-0.197131 3.563522,-0.394262 1.182785,-0.197131 1.379916,-0.606557 1.379916,-1.62254 v -5.716798 c 0.03033,-1.425408 -0.34877,-1.81967 -1.334425,-2.031965 z m -21.942193,13.76884 a 8.8557296,8.8557296 0 0 1 -8.886057,-8.795074 v -0.318443 a 8.9012214,8.9012214 0 0 1 17.787279,0 9.3713029,9.3713029 0 0 1 -8.901222,9.113517 z" />
</svg>
